# xmcd CD database file
# Copyright (C) 1997 Ti Kan
# 
# Track frame offsets:
#     150
#     16660
#     21737
#     28194
# 
# Disc length: 469 seconds
# 
# Revision: 1
# Processed by: cddbd v1.4b41PL1 Copyright (c) Steve Scherf et al.
# Submitted via: DiscPlay 4.0.2
# 
DISCID=2a01d304
DTITLE=The Kinleys - The Kinleys
DYEAR=1900
DGENRE=
TTITLE0=Please
TTITLE1=Just between you and me
TTITLE2=Talk to me
TTITLE3=You make it seem so easy
EXTD=
EXTT0=
EXTT1=
EXTT2=
EXTT3=
PLAYORDER=
